<?xml version="1.0" encoding="UTF-8"?>
<svg width="1120px" height="298px" viewBox="0 0 1120 298" version="1.1" xmlns="http://www.w3.org/2000/svg" xmlns:xlink="http://www.w3.org/1999/xlink">
    <!-- Generator: Sketch 64 (93537) - https://sketch.com -->
    <title>storj-logo-type-mark-osp-color</title>
    <desc>Created with Sketch.</desc>
    <defs>
        <path d="M131.932667,-2.84217094e-14 C145.47741,-2.84217094e-14 156.500585,10.7961115 156.866364,24.2525044 L227.051279,64.7715687 C230.701162,62.7949671 234.638586,61.8223671 238.53772,61.7664622 L238.923406,61.7639191 C247.533735,61.7738017 255.90458,66.2464449 260.519432,74.2396032 C267.291689,85.9694957 263.453814,100.913594 251.983577,107.958712 L251.983577,188.9997 C263.453814,196.044818 267.291689,210.988917 260.519432,222.718809 C255.973458,230.592666 247.782774,235.050315 239.308771,235.191071 L238.923406,235.19451 C234.898624,235.199113 230.821516,234.228633 227.051234,232.186819 L156.866342,272.70672 C156.503866,286.025878 145.700258,296.738538 132.345147,296.955071 L131.932667,296.958412 C118.38826,296.958412 107.365295,286.162835 106.998998,272.706907 L36.8160541,232.185761 C33.16561,234.16309 29.2274599,235.136035 25.3276145,235.19195 L24.941929,235.194493 C16.3315999,235.184611 7.96075481,230.711967 3.34590275,222.718809 C-3.42635389,210.988917 0.411520775,196.044818 11.8817574,188.9997 L11.8817574,107.958712 C0.411520775,100.913594 -3.42635389,85.9694957 3.34590275,74.2396032 C7.89187642,66.3657458 16.0825606,61.9080977 24.5565636,61.767341 L24.941929,61.7639027 C28.9666133,61.759299 33.0436215,62.7297323 36.8138268,64.7714446 L106.998993,24.2516918 C107.361469,10.932534 118.165077,0.219874438 131.520188,0.003341659 L131.932667,-2.84217094e-14 Z M131.932667,260.137688 L131.60974,260.141993 C131.582666,260.142716 131.555614,260.143529 131.528585,260.144433 L131.609365,260.142016 C131.501569,260.144905 131.394057,260.149234 131.286851,260.15499 L131.528585,260.144433 C131.410783,260.148371 131.293414,260.154024 131.176505,260.161369 L131.286851,260.15499 C131.177414,260.160865 131.068295,260.168227 130.959518,260.177059 L131.176505,260.161369 C131.069427,260.168096 130.962734,260.176242 130.856445,260.185789 L130.959518,260.177059 C130.863134,260.184886 130.767018,260.193866 130.671186,260.203991 L130.856445,260.185789 C130.739318,260.196308 130.62268,260.208528 130.506557,260.222423 L130.671186,260.203991 C130.562803,260.215441 130.454783,260.228354 130.34715,260.242715 L130.506557,260.222423 C130.407999,260.234217 130.309812,260.247217 130.212011,260.261409 L130.34715,260.242715 C130.225485,260.258947 130.104315,260.277029 129.983672,260.296937 L130.212011,260.261409 C130.113055,260.275769 130.014495,260.291348 129.916345,260.308132 L129.983672,260.296937 C129.881059,260.313869 129.778828,260.332123 129.676999,260.351684 L129.916345,260.308132 C129.808237,260.326619 129.700628,260.346567 129.593538,260.367955 L129.676999,260.351684 C129.545957,260.376857 129.415582,260.404195 129.285918,260.433668 L129.593538,260.367955 C129.34654,260.417285 129.102306,260.474276 128.861095,260.538669 C128.800475,260.554679 128.739846,260.571357 128.679392,260.588506 L128.861095,260.538669 C128.761564,260.565239 128.662548,260.59307 128.564065,260.622143 L128.679392,260.588506 C128.59095,260.613594 128.502884,260.63969 128.415209,260.666783 L128.564065,260.622143 C123.644917,262.074305 120.055015,266.62559 120.055015,272.015341 C120.055015,278.575188 125.372821,283.892994 131.932667,283.892994 C138.492514,283.892994 143.81032,278.575188 143.81032,272.015341 C143.81032,266.684288 140.298185,262.173537 135.461511,260.670687 C135.401191,260.651598 135.340193,260.633216 135.279011,260.615318 L135.461511,260.670687 C135.371039,260.642576 135.280104,260.615517 135.188719,260.589524 L135.279011,260.615318 C135.181777,260.586873 135.084078,260.559649 134.985936,260.53366 L135.188719,260.589524 C135.083513,260.559601 134.977711,260.531091 134.871336,260.504017 L134.985936,260.53366 C134.752822,260.471928 134.517201,260.41716 134.279338,260.369535 C134.241913,260.361962 134.203994,260.354555 134.166011,260.347329 L134.279338,260.369535 C134.16884,260.347411 134.057858,260.326829 133.946419,260.307806 L134.166011,260.347329 C134.074646,260.329946 133.98291,260.31361 133.890816,260.298333 L133.946419,260.307806 C133.84696,260.290829 133.747136,260.275093 133.646968,260.260613 L133.890816,260.298333 C133.768409,260.278029 133.64537,260.259596 133.521729,260.243065 L133.646968,260.260613 C133.551346,260.24679 133.455409,260.234111 133.359174,260.222587 L133.521729,260.243065 C133.412886,260.228512 133.303578,260.215434 133.193823,260.203851 L133.359174,260.222587 C133.242861,260.208659 133.126113,260.196418 133.008958,260.185884 L133.193823,260.203851 C133.098156,260.193754 133.002149,260.184793 132.905818,260.176981 L133.008958,260.185884 C132.902508,260.176312 132.795723,260.16815 132.688624,260.161411 L132.905818,260.176981 C132.797179,260.168171 132.688126,260.160824 132.57868,260.154958 L132.688624,260.161411 C132.57177,260.154059 132.454542,260.148402 132.336969,260.144459 L132.57868,260.154958 C132.364796,260.143494 132.14941,260.137688 131.932667,260.137688 Z M93.3212724,178.620493 L49.1353574,204.130876 C49.1668396,204.255105 49.1973269,204.37946 49.2268221,204.503931 C49.2358541,204.54204 49.2449948,204.58103 49.2540383,204.62003 C49.2739088,204.705735 49.2931368,204.790708 49.3119049,204.875731 C49.3255871,204.937704 49.339179,205.000428 49.3525213,205.063177 C49.3680707,205.136309 49.3832343,205.209246 49.3980614,205.282215 C49.4137798,205.359576 49.4290524,205.436623 49.443951,205.513702 C49.4866985,205.734839 49.5264466,205.956729 49.5631181,206.178829 C49.5724125,206.235115 49.5815676,206.291784 49.5905229,206.348466 C49.6762455,206.891099 49.7436085,207.434483 49.792912,207.978143 C49.7984637,208.039365 49.8037718,208.100416 49.8088525,208.161469 C49.8279886,208.391394 49.843912,208.62157 49.8566223,208.851711 C49.8577089,208.871386 49.8587708,208.891038 49.8598093,208.91069 L49.8566223,208.851711 C49.8631801,208.970451 49.8688826,209.089181 49.8737322,209.207893 C49.876656,209.279431 49.8792845,209.35141 49.8815999,209.423381 C49.8841478,209.502632 49.8863031,209.581301 49.888085,209.659956 C49.889446,209.719995 49.8905947,209.78037 49.8915236,209.840736 C49.8924437,209.900548 49.8931466,209.960181 49.8936353,210.019804 C49.8940834,210.074485 49.8943515,210.129155 49.8944396,210.183817 L49.8936353,210.019804 C49.9045269,211.348628 49.8090244,212.672506 49.6105864,213.978533 C49.5776087,214.195589 49.5417516,214.412354 49.5030619,214.628566 C49.4861748,214.722932 49.4687922,214.816961 49.450874,214.910881 C49.4128452,215.110225 49.3723392,215.309372 49.3294255,215.507976 C49.3139767,215.579475 49.2981745,215.651088 49.2820593,215.722627 C49.2704355,215.774226 49.2587156,215.825498 49.2468349,215.876731 C49.2357065,215.924724 49.2243562,215.973023 49.2128629,216.021286 C49.1909422,216.113327 49.1686573,216.204619 49.1458609,216.295782 C49.0778221,216.567887 49.0051063,216.839255 48.927852,217.10934 C48.8724539,217.30302 48.8146755,217.496188 48.754572,217.68865 C48.7341705,217.753976 48.7136026,217.818905 48.6927699,217.883751 C48.6756799,217.936949 48.6583463,217.990291 48.6408334,218.043575 C48.6204962,218.105454 48.5998808,218.167364 48.5790232,218.229196 C48.550633,218.313353 48.5219069,218.397042 48.4927367,218.480583 C48.4784394,218.52153 48.4640019,218.562535 48.4494572,218.603504 C48.4204349,218.685251 48.3910761,218.766609 48.3612944,218.84782 C48.3550665,218.864804 48.3485816,218.882428 48.3420768,218.900045 C48.3032864,219.005088 48.2641129,219.109037 48.2242447,219.212736 C48.1305251,219.456505 48.0329437,219.698939 47.9315484,219.939884 C47.8506032,220.132233 47.7672288,220.323629 47.6814375,220.514026 C47.65242,220.578427 47.6229619,220.643069 47.5932248,220.707594 C47.5741387,220.749006 47.5551122,220.789997 47.5359729,220.830939 C47.4952963,220.917955 47.4540118,221.004959 47.412217,221.091739 C47.3830831,221.152228 47.3538778,221.21225 47.3244279,221.272163 C47.2975768,221.326789 47.270467,221.381436 47.2431535,221.43599 C47.2074217,221.507356 47.1714657,221.578322 47.1351639,221.649129 C47.11276,221.692831 47.089851,221.73719 47.0668061,221.781486 C47.0285952,221.854928 46.9903926,221.927479 46.9518245,221.999856 C46.9301116,222.040603 46.9082615,222.081334 46.8862955,222.122009 C46.777841,222.322841 46.66653,222.522366 46.5524101,222.720463 L46.5524101,222.720463 L110.327656,259.541869 C110.340286,259.520039 110.352949,259.49823 110.365644,259.476441 C110.483455,259.274248 110.603838,259.074168 110.726924,258.875942 C110.747869,258.842209 110.768888,258.808539 110.789984,258.774923 C110.836802,258.700318 110.884165,258.625728 110.931911,258.551408 C110.962954,258.503091 110.993805,258.455431 111.024814,258.407883 C111.063478,258.348593 111.102831,258.28881 111.142433,258.229207 C111.178427,258.175037 111.214357,258.121415 111.25049,258.06794 C111.274101,258.032996 111.297929,257.997923 111.321844,257.962915 C111.708222,257.397313 112.117156,256.848577 112.547445,256.317859 C112.672965,256.163039 112.800536,256.009476 112.929899,255.857484 C113.050052,255.716313 113.171827,255.576411 113.295123,255.437892 C113.353666,255.372122 113.412445,255.306781 113.471563,255.241754 C113.504471,255.205555 113.537693,255.169227 113.571021,255.132998 C113.605303,255.095732 113.639519,255.058761 113.673846,255.021895 C113.816309,254.868889 113.960816,254.71753 114.107188,254.568006 C114.566725,254.098553 115.045037,253.646846 115.540604,253.214413 L115.584908,253.175845 C115.744518,253.037225 115.905907,252.900601 116.069036,252.76601 C116.095481,252.744193 116.121521,252.722797 116.147606,252.701453 C116.208404,252.651702 116.269979,252.601799 116.331797,252.552185 C116.387399,252.50756 116.443081,252.463259 116.498956,252.419192 C116.529587,252.395033 116.560256,252.370962 116.590982,252.346961 C116.792379,252.189648 116.996067,252.035497 117.20216,251.884435 C117.214899,251.875098 117.226829,251.866372 117.238766,251.857655 C117.300979,251.812225 117.363936,251.766699 117.427113,251.721461 C117.57756,251.613737 117.729004,251.507815 117.881666,251.403544 L117.945387,251.360166 C118.373443,251.069729 118.811004,250.792249 119.257506,250.52829 C119.301025,250.502563 119.344584,250.47699 119.388227,250.451547 C119.569697,250.34575 119.752725,250.242122 119.937174,250.14076 C120.011568,250.099879 120.085787,250.059584 120.160233,250.019656 C120.20408,249.996139 120.248103,249.972698 120.292204,249.949385 C120.342929,249.92257 120.393886,249.895858 120.444946,249.869318 C120.532217,249.823957 120.619591,249.779197 120.707261,249.73494 C120.742564,249.717117 120.778233,249.699218 120.81395,249.681402 C121.01557,249.580838 121.218314,249.483124 121.42256,249.388093 C121.469527,249.36624 121.516855,249.344399 121.564262,249.322703 C121.773833,249.2268 121.984408,249.133949 122.196485,249.04395 C122.405586,248.955213 122.616241,248.86921 122.828312,248.786028 C123.022708,248.709777 123.218508,248.635818 123.415464,248.564269 C123.462627,248.547137 123.50956,248.530248 123.556558,248.513497 C123.647818,248.480967 123.7398,248.44879 123.832026,248.417138 C123.854867,248.4093 123.877152,248.401688 123.899452,248.394106 C124.000394,248.359785 124.102109,248.325936 124.204113,248.292727 C124.24254,248.280217 124.280834,248.267853 124.319168,248.255579 C124.421642,248.222768 124.524636,248.190532 124.627914,248.158947 C124.651425,248.151757 124.674764,248.144658 124.698117,248.137592 C124.783521,248.111749 124.869298,248.086301 124.955266,248.061302 C125.028956,248.039875 125.102645,248.018818 125.176471,247.998092 C125.195116,247.992858 125.21353,247.987712 125.231952,247.982587 L125.231952,199.946278 C111.584805,198.259359 99.865435,190.128315 93.3212724,178.620493 Z M168.272156,177.607783 C162.166524,189.07403 151.125726,197.196298 138.296567,199.561669 L138.296567,247.891455 C138.440346,247.929258 138.583524,247.968311 138.726181,248.0086 C138.78941,248.026469 138.85214,248.044455 138.914767,248.06268 C139.396321,248.202793 139.872235,248.35718 140.341643,248.525237 C140.383181,248.540128 140.424838,248.555168 140.466442,248.570316 C140.558505,248.603815 140.649942,248.637721 140.741124,248.672146 C140.773233,248.68429 140.805544,248.696566 140.837824,248.708908 C140.924865,248.742163 141.011461,248.775831 141.09782,248.809968 C141.141901,248.827418 141.186114,248.845042 141.230264,248.862789 C141.329169,248.902517 141.427633,248.942836 141.525779,248.983763 C141.553128,248.995196 141.580745,249.006772 141.608337,249.018395 C141.827212,249.110569 142.044131,249.205641 142.259411,249.303684 C142.318201,249.330497 142.376552,249.357347 142.434781,249.384415 C142.607789,249.464795 142.779975,249.547265 142.951054,249.631639 C143.05733,249.684102 143.16305,249.737187 143.268338,249.790999 C143.330956,249.822949 143.393862,249.855437 143.456611,249.888184 C143.482988,249.902004 143.508978,249.915627 143.534941,249.929295 C143.634035,249.981401 143.732994,250.034351 143.831551,250.087947 C143.866709,250.107125 143.90214,250.126505 143.93752,250.145967 C143.997933,250.17914 144.057943,250.212477 144.117801,250.246053 C144.308018,250.352823 144.496666,250.461932 144.683732,250.573419 C144.72453,250.597658 144.764852,250.621844 144.805099,250.646141 C144.882677,250.693051 144.96032,250.740504 145.037681,250.788368 C145.086011,250.818186 145.134116,250.848176 145.182111,250.878324 C145.22974,250.908329 145.277665,250.938662 145.32548,250.969153 C145.381031,251.00449 145.435739,251.03968 145.4903,251.075078 C145.665578,251.188886 145.839823,251.305073 146.012504,251.423376 C146.073154,251.464818 146.133573,251.506602 146.193797,251.548644 C146.502055,251.763959 146.805232,251.985955 147.103104,252.214522 C147.160721,252.258591 147.218256,252.303136 147.27559,252.347927 L147.321781,252.384247 C147.563656,252.574129 147.801935,252.768385 148.036499,252.966896 C148.094704,253.015981 148.152259,253.065139 148.209588,253.114553 C148.269148,253.166075 148.328569,253.217785 148.387741,253.26977 C148.428387,253.305288 148.469031,253.341228 148.509557,253.377298 C148.542499,253.406814 148.575091,253.435979 148.607606,253.465227 C149.078099,253.88824 149.532288,254.328969 149.969259,254.78629 C150.008896,254.828041 150.048947,254.87025 150.088852,254.912599 C150.269054,255.103559 150.445946,255.297276 150.619787,255.493754 L150.630514,255.506197 C150.936411,255.852399 151.232844,256.207163 151.519407,256.570082 C151.562629,256.624442 151.605499,256.679199 151.648143,256.734138 C151.687407,256.785112 151.726657,256.836084 151.765714,256.887212 C151.807065,256.940943 151.847979,256.994953 151.888677,257.049133 C151.918628,257.089418 151.948494,257.12943 151.978243,257.169533 C152.031576,257.241007 152.084654,257.313365 152.137351,257.386019 C152.169238,257.430416 152.201136,257.4747 152.232892,257.519092 C152.27445,257.576747 152.315342,257.634426 152.355994,257.692285 C152.390695,257.742126 152.425799,257.792481 152.460722,257.842971 C152.506941,257.909331 152.552271,257.975547 152.597288,258.041991 C152.628409,258.088403 152.659821,258.135106 152.69108,258.181921 C152.958469,258.581887 153.214254,258.989961 153.458337,259.405733 L153.537337,259.541869 L217.313268,222.72106 L217.313268,222.72106 C217.17849,222.486999 217.050224,222.255799 216.925747,222.02279 C216.882899,221.942583 216.840569,221.862292 216.798687,221.781791 C216.767225,221.721315 216.736171,221.661026 216.705369,221.600622 C216.687204,221.565001 216.669145,221.529375 216.651173,221.493709 C216.540628,221.274337 216.433282,221.053246 216.329266,220.830733 C216.310022,220.789564 216.290997,220.748575 216.272084,220.707539 C216.235484,220.628121 216.199281,220.548469 216.163502,220.468642 C216.146699,220.431152 216.130052,220.393764 216.113499,220.356339 C216.076823,220.273423 216.040571,220.190243 216.004777,220.106882 C215.85495,219.757931 215.713277,219.406113 215.579705,219.051415 C215.451793,218.711753 215.331267,218.369323 215.218247,218.024519 C215.204342,217.982103 215.190372,217.939093 215.176519,217.896048 C215.008297,217.373322 214.857365,216.845545 214.723871,216.313339 C214.708667,216.252724 214.693697,216.192084 214.678954,216.131388 C214.628699,215.924502 214.58107,215.716945 214.536085,215.508791 C214.525148,215.458178 214.51444,215.407879 214.503887,215.357546 C214.483583,215.260714 214.463779,215.163393 214.444552,215.06595 C214.435678,215.02098 214.426933,214.976009 214.41831,214.931012 C214.34946,214.571715 214.288466,214.210918 214.235381,213.848783 C214.216507,213.720023 214.198626,213.591052 214.181749,213.461924 C214.159237,213.289673 214.138518,213.117209 214.119591,212.944495 C214.079909,212.582419 214.048086,212.218935 214.024227,211.854622 C214.019507,211.782547 214.015104,211.710536 214.011013,211.638494 C214.007861,211.582998 214.004885,211.527303 214.002095,211.471591 C213.990344,211.236922 213.9819,211.002069 213.976779,210.766985 C213.971351,210.517759 213.969654,210.268535 213.971705,210.019138 C213.972191,209.959848 213.972899,209.899882 213.973824,209.839907 C213.974516,209.795102 213.975312,209.751136 213.976225,209.707165 C213.981168,209.468665 213.989582,209.229254 214.001472,208.989791 C214.005688,208.904864 214.01035,208.819786 214.015451,208.734704 C214.018936,208.676599 214.02262,208.618559 214.02651,208.560519 C214.029669,208.513378 214.032956,208.466341 214.036377,208.419305 C214.056363,208.144527 214.080957,207.869642 214.110181,207.59488 C214.110636,207.590602 214.111099,207.586263 214.111562,207.581925 L214.110181,207.59488 C214.170374,207.02895 214.250209,206.463544 214.349953,205.899658 C214.359645,205.844867 214.369516,205.790137 214.379575,205.735423 C214.392341,205.66599 214.405406,205.596595 214.418774,205.527227 C214.458658,205.320265 214.501225,205.1136 214.5465,204.90722 C214.584161,204.735534 214.623803,204.563602 214.665337,204.391895 L168.272156,177.607783 Z M19.0084095,199.960924 C13.3274158,203.240848 11.3809636,210.505106 14.6608868,216.1861 C17.9408101,221.867094 25.2050687,223.813546 30.8860624,220.533623 C35.3641097,217.948221 37.5217401,212.887196 36.6282965,208.077396 C36.6201961,208.030491 36.6111437,207.983511 36.6018025,207.936569 L36.6282965,208.077396 C36.6117533,207.988336 36.5941639,207.899362 36.5755238,207.810492 L36.6018025,207.936569 C36.5790863,207.822416 36.5546617,207.708487 36.5285258,207.594819 L36.5755238,207.810492 C36.5503717,207.690574 36.5233064,207.570845 36.4943166,207.451346 L36.5285258,207.594819 C36.506933,207.500909 36.4841721,207.407177 36.4602418,207.313644 L36.4943166,207.451346 C36.4695875,207.34941 36.443458,207.247643 36.4159211,207.146069 L36.4602418,207.313644 C36.4318226,207.202566 36.4017539,207.091767 36.3700334,206.981284 L36.4159211,207.146069 C36.390265,207.051434 36.3633871,206.956967 36.3352818,206.86269 L36.3700334,206.981284 C36.2697173,206.63188 36.1528796,206.285622 36.0194409,205.943601 C36.0008091,205.895503 35.981659,205.847346 35.9621716,205.799262 L36.0194409,205.943601 C35.9772325,205.835415 35.933363,205.727653 35.88783,205.62035 L35.9621716,205.799262 C35.9222962,205.700872 35.8810084,205.602789 35.8383012,205.505038 L35.88783,205.62035 C35.8495235,205.530076 35.8100396,205.440127 35.7693768,205.350523 L35.8383012,205.505038 C35.7875657,205.388911 35.734827,205.273253 35.6800736,205.158107 L35.7693768,205.350523 C35.7257489,205.254386 35.680764,205.158645 35.6344201,205.063327 L35.6800736,205.158107 C35.6350373,205.063396 35.588638,204.969031 35.5408692,204.875036 L35.6344201,205.063327 C35.5779768,204.947237 35.5195178,204.831774 35.4590397,204.716984 L35.5408692,204.875036 C35.4721905,204.739897 35.4006811,204.605524 35.3263218,204.471987 L35.2335851,204.308447 C35.0709239,204.02671 34.8980793,203.753585 34.7156909,203.489381 C34.6897029,203.451592 34.6635779,203.414201 34.6372689,203.377002 L34.7156909,203.489381 C34.5883544,203.304925 34.4563661,203.124818 34.3199434,202.949164 C34.2959493,202.918072 34.2721669,202.88776 34.2482573,202.857589 L34.3199434,202.949164 C34.2643561,202.877592 34.2080325,202.806759 34.1509875,202.736672 L34.2482573,202.857589 C34.1713822,202.760582 34.0931929,202.665036 34.0137305,202.570962 L34.1509875,202.736672 C34.0864939,202.657435 34.0210781,202.579151 33.9547613,202.501833 L34.0137305,202.570962 C33.9540439,202.5003 33.8936389,202.430469 33.8325329,202.361473 L33.9547613,202.501833 C33.795549,202.316207 33.631144,202.136141 33.4618407,201.961778 C33.3396411,201.83613 33.2150072,201.713471 33.08805,201.593942 C32.9706542,201.482878 32.8508184,201.3745 32.7289781,201.268756 C32.6630278,201.212362 32.5972155,201.156577 32.530871,201.101578 L32.7289781,201.268756 C32.6507701,201.20088 32.5717361,201.134089 32.4918995,201.068396 L32.530871,201.101578 C28.8159125,198.021894 23.4321473,197.406878 19.0084095,199.960924 Z M230.684571,201.682186 L230.588824,201.775107 C230.467615,201.894508 230.348764,202.01674 230.232372,202.141755 C230.216103,202.159228 230.200439,202.176145 230.184817,202.193115 L230.232372,202.141755 C230.15935,202.220186 230.087296,202.299711 230.016236,202.38032 L230.184817,202.193115 C230.107255,202.277374 230.030759,202.362936 229.955363,202.449791 L230.016236,202.38032 C229.942421,202.464052 229.869679,202.548953 229.798035,202.635008 L229.955363,202.449791 C229.890888,202.524066 229.827217,202.599287 229.764372,202.675448 L229.798035,202.635008 C229.737445,202.707788 229.67764,202.781393 229.61864,202.855817 L229.764372,202.675448 C229.681479,202.775904 229.600022,202.877996 229.520049,202.981712 L229.61864,202.855817 C229.551584,202.9404 229.485566,203.02604 229.420611,203.112724 L229.520049,202.981712 C229.459959,203.059641 229.400707,203.138486 229.342314,203.218242 L229.420611,203.112724 C229.357611,203.1968 229.29561,203.281859 229.234632,203.367888 L229.342314,203.218242 C229.276066,203.308725 229.210923,203.400381 229.146915,203.493201 L229.234632,203.367888 C229.020763,203.66962 228.819475,203.983298 228.63175,204.308447 C228.600386,204.36277 228.56949,204.417261 228.539059,204.471914 L228.63175,204.308447 C228.492162,204.550219 228.362041,204.794859 228.241271,205.041937 C228.211757,205.102479 228.182755,205.163121 228.1543,205.223929 L228.241271,205.041937 C228.206979,205.112093 228.173442,205.182444 228.140656,205.252983 L228.1543,205.223929 C228.10766,205.323598 228.06249,205.42371 228.018788,205.524236 C228.00587,205.553663 227.993111,205.583338 227.980481,205.613042 L228.018788,205.524236 C227.827534,205.96417 227.664401,206.412025 227.529212,206.865404 C227.520858,206.893563 227.51266,206.921466 227.504569,206.949384 L227.529212,206.865404 C227.498653,206.967888 227.469522,207.070656 227.441817,207.173677 L227.504569,206.949384 C227.472785,207.059064 227.442655,207.168992 227.414172,207.279134 L227.441817,207.173677 C227.415486,207.271589 227.390444,207.36973 227.366687,207.468078 L227.414172,207.279134 C227.357012,207.500165 227.306481,207.722058 227.262506,207.944544 C227.255852,207.975293 227.249901,208.005942 227.244074,208.036605 L227.262506,207.944544 C226.304041,212.793745 228.459975,217.924405 232.979272,220.533623 C238.660266,223.813546 245.924525,221.867094 249.204448,216.1861 C252.484371,210.505106 250.537919,203.240848 244.856925,199.960924 C240.167851,197.253686 234.40013,198.107073 230.684571,201.682186 Z M221.527041,104.600427 L193.231747,120.937375 C198.042855,126.860664 200.926182,134.412937 200.926182,142.638648 C200.926182,155.017578 194.396179,165.871345 184.592868,171.943218 L220.952664,192.935649 C221.100029,192.782482 221.249111,192.631476 221.399863,192.482644 C221.660628,192.225202 221.926257,191.974382 222.196622,191.73013 C223.29382,190.738927 224.468717,189.85605 225.704647,189.085807 C226.185965,188.785848 226.676446,188.503021 227.175182,188.237537 L227.190541,188.229368 C227.417103,188.108969 227.645365,187.992147 227.875234,187.878926 C228.205925,187.716054 228.539549,187.560809 228.876213,187.413076 C228.989361,187.363426 229.102725,187.314678 229.216422,187.266779 C229.474053,187.158238 229.733696,187.053942 229.994925,186.95405 C230.162691,186.889903 230.330501,186.827791 230.498928,186.767492 C230.814467,186.654522 231.132258,186.547886 231.452006,186.44767 C231.647145,186.386511 231.842853,186.327789 232.039241,186.271467 C232.384616,186.172415 232.732219,186.080756 233.081666,185.996595 C233.289387,185.946566 233.49803,185.899127 233.707272,185.85436 C233.90752,185.811516 234.108508,185.771081 234.309997,185.733111 C234.350829,185.725417 234.391139,185.717924 234.431469,185.710529 C234.583407,185.682668 234.736122,185.656125 234.889096,185.630996 C235.091413,185.597766 235.293721,185.567074 235.496433,185.538859 C235.518178,185.535833 235.539558,185.532885 235.560943,185.529965 C235.603014,185.52422 235.645616,185.518514 235.688236,185.512917 C235.925223,185.481798 236.162431,185.454093 236.400091,185.42978 C236.629618,185.406305 236.858925,185.386043 237.088585,185.368946 C237.14205,185.364966 237.195497,185.36116 237.248963,185.357525 C237.482107,185.341675 237.715708,185.329082 237.949585,185.319773 C237.99714,185.317881 238.044516,185.316131 238.091904,185.314516 C238.237011,185.309569 238.382177,185.305888 238.527426,185.303476 L238.912792,185.300038 L238.91813,185.300048 L238.91813,111.658363 L238.91813,111.658363 L238.912792,111.658358 C238.141492,111.657473 237.372114,111.620777 236.607185,111.548948 C236.470505,111.536112 236.334148,111.522175 236.197946,111.507122 C235.886073,111.472659 235.574743,111.432309 235.264406,111.38615 C235.047704,111.353916 234.831662,111.318881 234.616161,111.281033 C234.327878,111.230401 234.040673,111.174758 233.754577,111.114125 C233.524856,111.065434 233.296384,111.013653 233.068696,110.958689 L232.65664,110.85552 C231.885754,110.655562 231.124439,110.418928 230.375533,110.146379 C230.201975,110.08321 230.029778,110.018382 229.858277,109.95165 C229.500604,109.812423 229.14907,109.666291 228.80082,109.512104 C228.741401,109.485798 228.681469,109.458983 228.621636,109.431929 C228.478151,109.367046 228.335891,109.3011 228.194218,109.233798 C227.925428,109.106111 227.658725,108.973532 227.39428,108.836113 C226.656123,108.452524 225.935665,108.031288 225.235985,107.573203 C225.059251,107.457495 224.883885,107.339464 224.709896,107.219096 C224.638847,107.169945 224.567856,107.120283 224.4971,107.07023 C224.277365,106.914788 224.060115,106.755751 223.845224,106.592985 C223.037111,105.980872 222.262615,105.316258 221.527041,104.600427 Z M42.143,104.786 L42.0100508,104.914049 C41.578455,105.318913 41.1341394,105.706603 40.6781821,106.076831 C39.872119,106.731306 39.0301616,107.330906 38.1578091,107.874399 L38.1446122,107.882615 C37.954363,108.000979 37.7626707,108.116676 37.5695967,108.229689 C37.5243933,108.25615 37.4785669,108.282779 37.4326637,108.309258 L37.5695967,108.229689 C37.1966992,108.44796 36.818648,108.656221 36.4358869,108.854352 C35.8899511,109.13695 35.3344208,109.398946 34.7705967,109.639991 C33.9250002,110.001505 33.0605585,110.31595 32.1818012,110.582082 C32.1212276,110.600426 32.0607555,110.618491 32.0002172,110.636327 C31.8042956,110.694057 31.6069615,110.749584 31.408977,110.802687 C31.0855381,110.889433 30.7606704,110.969638 30.4342806,111.043325 C30.3576925,111.060617 30.2806715,111.077626 30.2035688,111.094272 C29.984345,111.141601 29.7643794,111.186011 29.5438153,111.22747 C29.5244373,111.231112 29.5051264,111.234718 29.485811,111.238302 C29.3755214,111.258764 29.2650568,111.278493 29.1544519,111.297481 L29.485811,111.238302 C29.3168049,111.269658 29.1474511,111.29928 28.9777779,111.327163 C28.7539709,111.363941 28.5296641,111.397683 28.3048673,111.428382 C28.0659872,111.461004 27.8265145,111.490192 27.5865667,111.515922 C27.5451816,111.52036 27.5034833,111.524726 27.4617712,111.528987 C27.2373467,111.551912 27.0127247,111.571796 26.7877642,111.588644 C26.7309257,111.592901 26.6739067,111.596975 26.6168669,111.600853 C26.393412,111.616045 26.1700236,111.628224 25.9463807,111.6374 C25.8885257,111.639775 25.8302444,111.641963 25.7719469,111.643947 C25.7457368,111.644838 25.7201095,111.64567 25.6944792,111.646462 C25.4460708,111.654146 25.1970308,111.658124 24.9477906,111.658363 L25.001,111.657 L24.952543,111.658374 L24.9477906,111.658363 L24.9477906,185.300049 L24.9477906,185.300049 L24.952543,185.300054 C25.4117918,185.300581 25.8703592,185.313804 26.3277118,185.33958 C26.5181828,185.350313 26.7086614,185.36324 26.8988901,185.37834 C27.1550292,185.398664 27.4113457,185.422996 27.667112,185.451259 C27.9338915,185.480737 28.2002766,185.514521 28.465954,185.552561 C28.6458712,185.578322 28.8254254,185.606028 29.0046217,185.635675 C29.220974,185.67147 29.4367347,185.710082 29.6519148,185.751507 C29.8579803,185.791175 30.0637297,185.833469 30.2688935,185.878334 C30.8562874,186.006777 31.4392386,186.156397 32.0161616,186.326788 C32.6864031,186.524839 33.3453176,186.749689 33.9942816,187.001794 C34.2278929,187.092548 34.4600466,187.186763 34.6908247,187.284481 C34.7642984,187.31559 34.8379647,187.347199 34.9114874,187.379166 C35.2194934,187.513088 35.5245904,187.653098 35.8269634,187.799309 C35.9845125,187.875489 36.1416227,187.953506 36.2979605,188.033206 C36.7839501,188.280951 37.2627136,188.545094 37.7331047,188.825269 C37.876046,188.910407 38.0182545,188.997051 38.1596642,189.085169 L38.5162519,189.3116 C38.6351467,189.388522 38.7534503,189.466503 38.8711471,189.545539 C40.2485742,190.470667 41.5413952,191.538742 42.7265393,192.744264 L87.7396335,166.757144 C73.4079235,164.957041 62.286389,152.839586 62.0470326,138.076782 L62.0470326,138.076782 L62.0430942,137.590645 C62.0430942,130.883842 64.2890496,124.701609 68.0698704,119.755038 L42.143,104.786 Z M133.469232,121.258873 L91.4402852,121.258873 C82.4204961,121.258873 75.1085124,128.570856 75.1085124,137.590645 C75.1085124,146.610434 82.4204961,153.922418 91.4405502,153.922418 L91.4405502,153.922418 L100.438546,153.922783 L100.921777,159.931573 C102.156113,175.280044 115.018967,187.205481 130.519045,187.205481 C142.900679,187.205481 153.84978,179.557655 158.233596,168.198939 L158.233596,168.198939 L159.847085,164.018299 L166.480989,164.018423 C178.288713,164.018423 187.860764,154.446372 187.860764,142.638648 C187.860764,130.830924 178.288713,121.258873 166.480989,121.258873 L166.480989,121.258873 L134.548047,121.258873 C134.402902,121.258873 134.261103,121.26031 134.122415,121.263195 L134.122415,121.263195 L133.981975,121.266117 L133.655555,121.259905 L133.469232,121.258873 Z M153.537341,37.417128 L153.466251,37.5391892 C153.362728,37.7157841 153.257095,37.8909922 153.149386,38.0647788 C153.11603,38.118597 153.082681,38.1719514 153.049136,38.2251703 C153.019212,38.2726475 152.988923,38.3203429 152.958477,38.3679281 C152.921337,38.4259728 152.884141,38.4835826 152.846714,38.5410286 C152.525856,39.0335162 152.187971,39.5141038 151.833978,39.9818236 C151.660083,40.211578 151.482561,40.4379065 151.301261,40.6610414 C151.008364,41.0215157 150.705788,41.373455 150.393772,41.7166586 C150.365037,41.7482651 150.336373,41.779633 150.30763,41.8109274 C150.250021,41.8736529 150.191835,41.9363591 150.133332,41.9987643 C150.102229,42.031941 150.071476,42.0645677 150.040636,42.0971113 C149.980919,42.1601301 149.92053,42.2231969 149.859813,42.2859458 C149.325594,42.8380382 148.766282,43.36537 148.183576,43.8662489 C147.921776,44.0912919 147.654971,44.311218 147.383604,44.5256237 C147.347821,44.5538972 147.31146,44.5824643 147.275017,44.6109323 C147.210356,44.6614428 147.145698,44.7114437 147.080789,44.7611329 C147.022833,44.8055002 146.96443,44.8498046 146.905827,44.8938567 C146.86745,44.9227049 146.828806,44.95158 146.790076,44.9803455 C146.618351,45.1078822 146.44528,45.2330171 146.27056,45.3559656 C146.222923,45.3894866 146.175397,45.4226829 146.12775,45.4557174 C145.960176,45.5719013 145.791036,45.6861334 145.620437,45.7983286 C145.546232,45.8471301 145.471669,45.8955986 145.396833,45.9436779 C145.185581,46.0793976 144.97225,46.2119556 144.756804,46.341352 C144.708972,46.3700801 144.66094,46.3987087 144.612805,46.4271801 C144.435026,46.5323302 144.256123,46.6351723 144.075842,46.7358422 C144.027034,46.7630981 143.977649,46.7904568 143.928161,46.8176524 C143.866371,46.8516059 143.805108,46.8849362 143.743689,46.9180165 C143.550411,47.0221245 143.354991,47.1240654 143.158074,47.2234725 C143.127152,47.2390826 143.096141,47.2546561 143.065093,47.2701668 C142.989839,47.3077612 142.914469,47.3449377 142.838885,47.3817434 C142.78433,47.408309 142.72959,47.4347172 142.674738,47.4609309 C142.491934,47.5482938 142.307927,47.6334837 142.122724,47.7164806 C141.939382,47.7986427 141.75494,47.8786251 141.569359,47.9564282 C141.355213,48.0462096 141.139249,48.1332057 140.921812,48.2172425 C140.678677,48.3112125 140.433595,48.4015195 140.18674,48.4880541 C140.152771,48.4999612 140.119044,48.5117017 140.085284,48.5233719 C139.876087,48.5956912 139.665247,48.6654253 139.453182,48.7324023 C139.404226,48.7478629 139.355824,48.7629853 139.307358,48.7779638 C139.239278,48.799007 139.17024,48.8200162 139.101076,48.8407333 C139.038398,48.8595053 138.976403,48.8778084 138.914309,48.8958766 C138.839889,48.917533 138.764862,48.9389818 138.689692,48.9600872 C138.655168,48.9697802 138.620839,48.9793384 138.586481,48.988825 C138.521604,49.0067388 138.456224,49.0245035 138.390737,49.0420083 L138.296,49.066 L138.296,108.193 L166.480989,108.193454 C172.230778,108.193454 177.651523,109.60226 182.41687,112.093517 L214.870205,93.3562727 C214.805044,93.1210947 214.743484,92.8854057 214.685507,92.6492801 C214.634339,92.4408964 214.5859,92.2318898 214.540244,92.0225936 C214.497551,91.8268591 214.457373,91.6312916 214.419608,91.4355139 C214.405221,91.3609242 214.391245,91.2866306 214.377614,91.2123089 C214.364008,91.1381261 214.350672,91.0634796 214.337684,90.9888072 C214.244302,90.4518738 214.168983,89.9138865 214.111448,89.3754179 C214.100959,89.277254 214.091054,89.1790018 214.08174,89.0807387 C214.064641,88.900318 214.049564,88.720281 214.036459,88.5402396 C214.031995,88.4789013 214.027759,88.4175611 214.023752,88.3562218 C214.018334,88.2732901 214.013313,88.1899933 214.008713,88.106701 C214.00555,88.0494202 214.002601,87.9924611 213.99985,87.9355052 C213.988494,87.7004812 213.980483,87.4654125 213.975803,87.2304688 C213.974433,87.1617092 213.973349,87.0930019 213.972549,87.0243071 C213.971939,86.9719155 213.971493,86.9192865 213.971214,86.8666656 L213.972549,87.0243071 C213.968826,86.7043369 213.971273,86.3846372 213.979843,86.0653882 C213.985238,85.8644064 213.993063,85.6635567 214.003302,85.4629307 C214.00636,85.403029 214.00962,85.3433731 214.013094,85.2837382 C214.016579,85.2238917 214.020292,85.1638776 214.024221,85.103886 C214.056303,84.6140078 214.102775,84.1257173 214.163466,83.6395813 C214.180958,83.4994597 214.199658,83.3593362 214.219537,83.2194079 C214.230879,83.1395734 214.242638,83.0595818 214.254782,82.979657 L214.219537,83.2194079 C214.277085,82.81434 214.344523,82.4109082 214.421748,82.0094957 C214.43056,81.963691 214.439487,81.9179779 214.44854,81.8722917 C214.522429,81.4994201 214.604815,81.1281579 214.69558,80.7589902 C214.759152,80.5004211 214.826864,80.2427779 214.898661,79.9862691 C214.912335,79.9374177 214.92611,79.8887717 214.940032,79.8401673 C214.949924,79.8056286 214.960055,79.7705469 214.970262,79.7354872 L214.940032,79.8401673 C215.018796,79.5651882 215.102264,79.2915405 215.190403,79.0193557 C215.202698,78.981387 215.21512,78.9433368 215.227633,78.9053156 C215.25488,78.8225258 215.282553,78.7398945 215.310657,78.6574044 C215.322551,78.6224931 215.334562,78.5874921 215.346651,78.5525169 C215.425041,78.3257191 215.50672,78.0999514 215.59165,77.8753434 C215.742327,77.4768702 215.903108,77.0823327 216.073989,76.6918726 C216.198164,76.4081282 216.327762,76.1263484 216.462656,75.8468908 C216.495194,75.7794765 216.528398,75.7114729 216.561917,75.6436099 C216.588666,75.5894545 216.615437,75.535742 216.642405,75.482119 C216.676787,75.4137526 216.711771,75.3449817 216.747081,75.2763611 C216.769145,75.2334827 216.791274,75.1907818 216.813528,75.1481399 C216.851793,75.0748238 216.890374,75.0017852 216.929326,74.9289236 C217.052438,74.6986228 217.17963,74.4694347 217.310519,74.2421249 L217.313263,74.2373608 L153.537341,37.417128 L153.537341,37.417128 Z M110.327994,37.417128 L46.5520714,74.2373608 C46.6561686,74.4180492 46.757929,74.5999251 46.8573389,74.7829387 C46.8839827,74.8319918 46.9102569,74.880751 46.9363645,74.9295898 C46.9749606,75.0017852 47.0135422,75.0748238 47.0517524,75.1480363 C47.0740613,75.1907818 47.0961901,75.2334827 47.1181927,75.2762419 C47.1581653,75.3539245 47.1976613,75.4316799 47.2367411,75.5096238 C47.2564022,75.5488355 47.2761837,75.5885511 47.2958573,75.628315 C47.3344867,75.7063944 47.3725653,75.7843806 47.4102297,75.8625482 C47.4389596,75.9221688 47.4677572,75.9825486 47.4963081,76.0430347 C47.5077905,76.0673606 47.5192252,76.091687 47.5306201,76.1160304 L47.4963081,76.0430347 C47.5509512,76.1587978 47.6046907,76.2749497 47.6575236,76.3914788 C47.7447631,76.5838797 47.8298318,76.77802 47.9123964,76.9731429 L47.9218677,76.9955563 C48.1381678,77.50812 48.3371984,78.027445 48.5187017,78.552569 C48.5307726,78.5874921 48.5427837,78.6224931 48.554717,78.6575195 C48.5827822,78.7398945 48.610455,78.8225258 48.637695,78.9052944 C48.6502151,78.9433368 48.662637,78.981387 48.6749674,79.0194658 C48.7000552,79.0969404 48.7247992,79.1746439 48.7491629,79.2524633 C48.8102875,79.4476929 48.8690819,79.6438712 48.9254649,79.8407319 C48.9392252,79.8887717 48.9530003,79.9374177 48.9666281,79.9861045 C49.0384712,80.2427779 49.1061826,80.5004211 49.1697798,80.7590927 C49.2274632,80.9937063 49.2817844,81.2292692 49.332697,81.4655994 C49.3445529,81.5206263 49.3563515,81.5763069 49.3679609,81.632029 C49.4135608,81.8509176 49.4561546,82.0699675 49.4958248,82.2895925 C49.5274834,82.4648536 49.5573168,82.640711 49.585275,82.8169038 L49.594917,82.8781572 C49.7909634,84.1337033 49.8918244,85.4060824 49.8944205,86.6838015 C49.8945446,86.7442618 49.894446,86.805258 49.8941231,86.8662651 C49.8938417,86.9192865 49.8933956,86.9719155 49.8927825,87.0245519 L49.8941231,86.8662651 C49.893481,86.9876125 49.8919519,87.1090032 49.8895331,87.2304272 C49.8875938,87.3277788 49.8850839,87.4251103 49.8820013,87.5224581 C49.8800403,87.5843639 49.8778575,87.6460297 49.8754445,87.7077007 C49.8724782,87.78353 49.8691544,87.859564 49.8654804,87.9356035 C49.8631035,87.9848004 49.8605746,88.0340979 49.8578983,88.0833972 C49.8462377,88.2981496 49.831803,88.5126445 49.8145642,88.7271175 C49.808197,88.8063152 49.8014866,88.885076 49.7943972,88.963831 C49.7450115,89.5125959 49.6771389,90.0616586 49.5905872,90.6095395 C49.5841352,90.6503796 49.577608,90.6910375 49.5709778,90.7316885 C49.5307947,90.9780673 49.4868067,91.2243029 49.4390097,91.4702026 C49.4304116,91.5144342 49.4217421,91.5583961 49.4129506,91.6023467 C49.3938806,91.6976852 49.3742095,91.7930997 49.3539618,91.8884564 C49.3445243,91.9329041 49.3349165,91.9775458 49.3251821,92.0221743 C49.3098098,92.0926449 49.2942171,92.1626637 49.278312,92.2326481 C49.260446,92.3112666 49.2420893,92.3902483 49.2233335,92.4691834 C49.167932,92.7023327 49.1091233,92.9347986 49.0468225,93.1667878 C49.0207008,93.2640646 48.9938315,93.3617318 48.9663408,93.459309 C48.9518346,93.5107959 48.9372251,93.5620166 48.922444,93.6132116 L78.9700932,110.961724 C82.7558089,109.185828 86.9821564,108.193454 91.4402852,108.193454 L91.4402852,108.193454 L125.231,108.193 L125.231,48.9755406 C125.107846,48.9412907 124.985147,48.9061206 124.862838,48.8700382 C124.826066,48.8591902 124.789099,48.8481908 124.752168,48.8371081 C124.664514,48.8108035 124.577206,48.7840741 124.490102,48.7568799 C124.446085,48.7431382 124.401783,48.7291706 124.357535,48.7150829 C124.277779,48.6896889 124.198477,48.6639971 124.11935,48.63792 C124.073446,48.6227922 124.027424,48.6074753 123.981462,48.5920283 C123.765264,48.5193674 123.55042,48.4438359 123.336945,48.3654693 C123.300716,48.3521709 123.264002,48.3385952 123.227329,48.3249356 C123.155972,48.2983565 123.085099,48.2715863 123.01438,48.2445033 C122.824108,48.1716343 122.63501,48.0965242 122.447064,48.0191848 C122.164277,47.9028129 121.884448,47.7815532 121.607334,47.655371 C121.456285,47.5865885 121.306451,47.5165395 121.157437,47.4450539 C121.106815,47.42077 121.056014,47.3961866 121.005309,47.3714364 C120.694822,47.219878 120.388088,47.0621373 120.085128,46.8983088 C120.007094,46.8561104 119.929424,46.8135713 119.852006,46.7706322 C119.817065,46.751253 119.781771,46.7315657 119.746529,46.7117954 C119.68145,46.6752845 119.616849,46.6386609 119.552428,46.6017583 C119.485649,46.5635035 119.419281,46.5250759 119.353107,46.486352 C119.306819,46.4592672 119.260099,46.4317237 119.213477,46.4040326 C119.134179,46.3569324 119.055523,46.3096234 118.977151,46.2618944 C118.952919,46.2471366 118.928911,46.2324598 118.904931,46.2177435 C118.812134,46.1607992 118.719422,46.1030648 118.627119,46.0447414 C118.594462,46.0241058 118.562175,46.0035998 118.529938,45.9830218 C118.471281,45.9455795 118.412555,45.9077453 118.353999,45.869672 C118.295533,45.8316579 118.237055,45.7932856 118.178749,45.7546748 C118.124778,45.7189329 118.071428,45.6833063 118.018224,45.64748 C117.964101,45.6110358 117.909856,45.5741982 117.855764,45.537153 C117.781206,45.4860912 117.706931,45.4346291 117.63295,45.3827757 C117.425278,45.2372175 117.219972,45.0886086 117.017051,44.9369831 C116.865388,44.8236606 116.7148,44.708452 116.565577,44.5915805 C116.515156,44.5520902 116.465037,44.5125263 116.415074,44.4727747 C116.046656,44.1796526 115.686725,43.8763291 115.335704,43.5632279 C115.2942,43.5262102 115.252176,43.4884734 115.210282,43.4505963 C115.131542,43.3794019 115.053847,43.3082584 114.976607,43.2366317 C114.950551,43.2124705 114.924158,43.1878911 114.897819,43.1632553 C114.864052,43.1316719 114.830393,43.1000145 114.796822,43.0682648 C114.729749,43.0048321 114.662893,42.9408997 114.596393,42.8766007 C114.562131,42.8434714 114.528403,42.8106741 114.494767,42.7777825 C114.453788,42.7377103 114.412596,42.6971518 114.371545,42.6564516 L114.295253,42.5804858 C114.273428,42.5586608 114.251643,42.5367955 114.229899,42.5148901 C114.082642,42.3665469 113.937023,42.2161359 113.793299,42.0639165 L113.76193,42.0306319 C113.644667,41.9059832 113.528672,41.7801278 113.413966,41.6530864 C113.318418,41.547263 113.223786,41.4406416 113.13006,41.3332095 C112.993366,41.176526 112.858618,41.018142 112.725833,40.8580711 C112.689959,40.8148251 112.654273,40.7715095 112.618729,40.7280718 C112.566787,40.6645936 112.515103,40.6007934 112.463729,40.5367343 C112.337381,40.3791873 112.213107,40.2203361 112.090733,40.0599572 C112.052875,40.010343 112.01496,39.9602658 111.977231,39.9100416 C111.944826,39.8669053 111.912497,39.8235788 111.880306,39.7801441 C111.828361,39.7100542 111.777029,39.6400313 111.726054,39.5697321 C111.698561,39.5318178 111.671149,39.4937897 111.643842,39.4556815 C111.591502,39.382642 111.539372,39.3090583 111.487633,39.2351812 C111.462246,39.1989317 111.43717,39.1629245 111.412187,39.1268482 C111.366564,39.0609691 111.321077,38.9946052 111.275904,38.9280113 C111.242552,38.8788441 111.209313,38.8294646 111.176246,38.7799602 C110.92708,38.4069213 110.687917,38.0271495 110.458892,37.6406626 L110.327994,37.417128 Z M232.979272,76.4247895 C228.492624,79.015157 226.335315,84.0906666 227.24222,88.9087273 C227.248222,88.9438102 227.254994,88.978792 227.261926,89.0137528 L227.24222,88.9087273 C227.2788,89.1030658 227.320366,89.2969855 227.366965,89.4903064 C227.568607,90.3261585 227.863308,91.1468394 228.251916,91.9380611 C228.270098,91.9752123 228.288839,92.0128635 228.307799,92.050456 L228.251916,91.9380611 C228.293314,92.0223495 228.335778,92.1063035 228.379309,92.1899056 L228.307799,92.050456 C228.361309,92.1565533 228.416559,92.2621833 228.47356,92.3673115 L228.63175,92.6499652 C228.793601,92.9303004 228.965535,93.2021088 229.146921,93.4650854 C229.173998,93.504485 229.201284,93.5435501 229.228771,93.5824061 L229.146921,93.4650854 C229.205887,93.5505742 229.265851,93.6351296 229.326792,93.7187413 L229.228771,93.5824061 C229.292429,93.6723951 229.357165,93.7612626 229.422949,93.8490011 L229.326792,93.7187413 C229.397311,93.8154934 229.469139,93.9109817 229.542241,94.0051901 L229.422949,93.8490011 C229.479799,93.9248223 229.537431,93.9998003 229.595829,94.0739303 L229.542241,94.0051901 C229.610729,94.093451 229.680335,94.1805884 229.751034,94.266589 L229.595829,94.0739303 C229.661533,94.1573347 229.728206,94.2396657 229.795821,94.3209164 L229.751034,94.266589 C229.87552,94.4180202 230.003391,94.5659267 230.134495,94.7102355 C233.811137,98.7554098 239.929562,99.8423024 244.856925,96.9974879 C250.537919,93.7175646 252.484371,86.453306 249.204448,80.7723122 C245.924525,75.0913185 238.660266,73.1448663 232.979272,76.4247895 Z M14.6608868,80.7723122 C11.3809636,86.453306 13.3274158,93.7175646 19.0084095,96.9974879 C23.5111497,99.5971464 29.0085134,98.9135407 32.7282928,95.6894825 C32.8059949,95.6228143 32.8822107,95.5549195 32.9576034,95.4859829 L33.1807639,95.2762261 C33.3037296,95.1579083 33.4244477,95.0366096 33.5428046,94.9123603 C33.5716406,94.8821307 33.6000411,94.8519806 33.6282969,94.8216668 L33.5428046,94.9123603 C33.6055655,94.8464748 33.6676624,94.7797597 33.7290786,94.7122195 L33.6282969,94.8216668 C33.6965594,94.7484325 33.7639775,94.6742422 33.8305305,94.5991057 L33.7290786,94.7122195 C33.8002932,94.6339037 33.8705924,94.5544785 33.9399499,94.4739509 L33.8305305,94.5991057 C33.9014138,94.5190806 33.971316,94.4379823 34.0402122,94.3558228 L33.9399499,94.4739509 C34.0088297,94.3939778 34.0767807,94.3129175 34.1437769,94.230777 L34.0402122,94.3558228 C34.252857,94.1022415 34.4559194,93.8385506 34.6486726,93.5651022 C34.6710384,93.5335239 34.6934084,93.5014515 34.7156418,93.4692387 L34.6486726,93.5651022 C34.8558548,93.271184 35.0511265,92.9659927 35.2335851,92.6499652 C35.2880718,92.5555914 35.3411503,92.4607113 35.3928226,92.3653515 C35.4124711,92.3291241 35.4318799,92.2928696 35.4510816,92.2565571 L35.3928226,92.3653515 C35.4502013,92.2594604 35.5058461,92.1529778 35.5597594,92.0459401 L35.4510816,92.2565571 C35.5044409,92.1556487 35.5562016,92.0542922 35.6063717,91.9525176 L35.5597594,92.0459401 C35.6047587,91.9566003 35.6485517,91.8668737 35.6911402,91.7767817 L35.6063717,91.9525176 C35.6589216,91.8459151 35.7097265,91.738854 35.7587955,91.6313688 L35.6911402,91.7767817 C35.79494,91.5572027 35.891584,91.3354526 35.9810947,91.1118383 C35.9941183,91.0796332 36.0067675,91.0476272 36.0192682,91.0155901 L35.9810947,91.1118383 C36.1543337,90.6790555 36.3008529,90.2392901 36.4208147,89.7947679 C36.4355107,89.7396859 36.4498295,89.684969 36.4637421,89.6302005 L36.4208147,89.7947679 C36.4480227,89.6939479 36.4738645,89.5928832 36.4983421,89.4915999 L36.4637421,89.6302005 C36.4885525,89.5325313 36.5120711,89.4346978 36.5343042,89.3367231 L36.4983421,89.4915999 C36.5259784,89.3772465 36.5518756,89.2626144 36.5760365,89.1477408 L36.5343042,89.3367231 C36.558161,89.2315932 36.5805377,89.1263009 36.601442,89.0208749 L36.5760365,89.1477408 C36.5954212,89.0555759 36.6136882,88.9632555 36.6308389,88.870799 L36.601442,89.0208749 C37.56337,84.1696101 35.4075365,79.0352638 30.8860624,76.4247895 C25.2050687,73.1448663 17.9408101,75.0913185 14.6608868,80.7723122 Z M131.932667,13.0654182 C125.372821,13.0654182 120.055015,18.3832245 120.055015,24.9430711 C120.055015,29.9650235 123.171681,34.2590395 127.576299,35.9964041 C127.608515,36.0100731 127.640974,36.0226832 127.673495,36.0351525 L127.576299,35.9964041 C127.657533,36.028446 127.739205,36.0596183 127.821303,36.0899096 L127.673495,36.0351525 C127.769668,36.072027 127.866392,36.1076703 127.963645,36.1420683 L127.821303,36.0899096 C127.913059,36.1237639 128.005347,36.1565177 128.098152,36.1881548 L127.963645,36.1420683 C128.061031,36.1765131 128.158948,36.2097092 128.257374,36.241642 L128.098152,36.1881548 C128.200813,36.2231518 128.304106,36.2567825 128.40801,36.2890252 L128.257374,36.241642 C128.359134,36.2746561 128.461439,36.30632 128.564265,36.3366178 L128.40801,36.2890252 C128.498034,36.3169606 128.588516,36.3438541 128.679443,36.3696916 L128.564265,36.3366178 C128.662822,36.3656578 128.761859,36.3934427 128.861354,36.4199585 L128.679443,36.3696916 C128.786707,36.4001715 128.89459,36.4291818 129.003068,36.4566993 L128.861354,36.4199585 C129.102663,36.4842682 129.346668,36.5411129 129.593076,36.5902924 C129.645351,36.6008054 129.697285,36.6108162 129.749338,36.6204877 L129.593076,36.5902924 C129.686913,36.6090211 129.781099,36.6266381 129.875617,36.6431324 L129.749338,36.6204877 C129.856057,36.6403158 129.963277,36.6587171 130.070978,36.6756709 L129.875617,36.6431324 C129.989395,36.6629879 130.103654,36.6812165 130.218367,36.697799 L130.070978,36.6756709 C130.146461,36.6875531 130.222179,36.6987243 130.298127,36.7091775 L130.218367,36.697799 C130.336214,36.7148346 130.454539,36.7301329 130.573311,36.743673 L130.298127,36.7091775 C130.402475,36.7235397 130.507255,36.7365464 130.61245,36.7481794 L130.573311,36.743673 C130.67304,36.7550422 130.773084,36.7651717 130.873426,36.7740493 L130.61245,36.7481794 C130.725663,36.7606991 130.839356,36.7716277 130.953506,36.7809422 L130.873426,36.7740493 C130.985194,36.7839379 131.097332,36.7922731 131.209812,36.7990379 L130.953506,36.7809422 C131.061812,36.7897798 131.170529,36.7971645 131.279637,36.8030766 L131.209812,36.7990379 C131.3157,36.805406 131.421891,36.8103825 131.528366,36.8139529 L131.279637,36.8030766 C131.495827,36.8147909 131.713554,36.820724 131.932667,36.820724 L132.255595,36.8164191 C132.282669,36.8156964 132.309721,36.8148831 132.336749,36.8139796 L132.255961,36.8163964 C132.366091,36.8134454 132.475924,36.8089904 132.585437,36.8030471 L132.336749,36.8139796 C132.443467,36.810412 132.549827,36.8054367 132.655813,36.7990716 L132.585437,36.8030471 C132.694544,36.7971258 132.803334,36.7897272 132.911783,36.7808669 L132.655813,36.7990716 C132.768269,36.7923178 132.880304,36.7839994 132.991895,36.7741378 L132.911783,36.7808669 C133.025914,36.7715424 133.139668,36.7605989 133.253019,36.7480546 L132.991895,36.7741378 C133.092253,36.7652689 133.192253,36.7551519 133.291878,36.7438023 L133.253019,36.7480546 C133.359713,36.736247 133.466049,36.723021 133.572006,36.7083918 L133.291878,36.7438023 C133.407626,36.730616 133.522868,36.715766 133.637581,36.6992769 L133.572006,36.7083918 C133.649836,36.6976461 133.727461,36.6861433 133.804872,36.6738893 L133.637581,36.6992769 C133.755869,36.6822737 133.873595,36.6635276 133.99073,36.6430654 L133.804872,36.6738893 C133.899116,36.6589707 133.993044,36.6429388 134.086639,36.6258043 L133.99073,36.6430654 C134.087483,36.6261637 134.183834,36.6080911 134.279767,36.5888627 L134.086639,36.6258043 C134.351092,36.5773909 134.612889,36.5201756 134.87167,36.4544023 C134.909545,36.4446701 134.947681,36.43476 134.985742,36.4246657 L134.87167,36.4544023 C134.977913,36.427399 135.083648,36.3989533 135.18885,36.3690819 L134.985742,36.4246657 C135.083906,36.3986308 135.181572,36.3713703 135.278721,36.3429018 L135.18885,36.3690819 C135.283662,36.3421606 135.378041,36.3140813 135.471969,36.2848565 L135.278721,36.3429018 C135.386793,36.3112323 135.494227,36.2780678 135.600998,36.2434321 L135.471969,36.2848565 C135.570733,36.2541269 135.668999,36.2221306 135.766745,36.1888821 L135.600998,36.2434321 C135.701943,36.2106864 135.802295,36.1766257 135.902035,36.1412702 L135.766745,36.1888821 C135.859589,36.157301 135.951963,36.12459 136.043851,36.0907616 L135.902035,36.1412702 C136.000544,36.1063509 136.098456,36.0701686 136.195751,36.0327428 L136.043851,36.0907616 C136.122845,36.0616797 136.20148,36.031772 136.279742,36.0010462 L136.195751,36.0327428 C140.649584,34.3195074 143.81032,30.000404 143.81032,24.9430711 C143.81032,18.3832245 138.492514,13.0654182 131.932667,13.0654182 Z" id="path-1"></path>
        <path d="M385.749746,-1.42108547e-14 C436.501377,-1.42108547e-14 472.92019,37.7766595 472.92019,84.4702475 L472.92019,84.9391735 C472.92019,131.632762 436.031636,169.878346 385.280005,169.878346 C334.528374,169.878346 298.109561,132.101687 298.109561,85.4089145 L298.109561,84.9391735 C298.109561,38.2464005 334.998115,-1.42108547e-14 385.749746,-1.42108547e-14 Z M63.999803,0.5480315 C87.911755,0.5480315 108.307171,8.0492126 124.951996,21.4115579 L106.197413,48.6043585 C91.662345,38.5244935 77.362148,32.4292744 63.530877,32.4292744 C49.699606,32.4292744 42.43248,38.7585485 42.43248,46.7286555 L42.43248,47.1975815 C42.43248,57.9812425 49.464736,61.4969625 77.831074,68.7640885 C111.120725,77.4379915 129.875309,89.3935595 129.875309,117.992323 L129.875309,118.461248 C129.875309,151.046288 105.025506,169.330314 69.626097,169.330314 C44.776294,169.330314 19.692435,160.657226 0,143.075365 L21.333268,117.523396 C36.10239,129.713835 51.575309,137.449887 70.329077,137.449887 C85.0982,137.449887 94.006974,131.588724 94.006974,121.977784 L94.006974,121.508858 C94.006974,112.366844 88.38068,107.678402 60.952193,100.645331 C27.897413,92.2062995 6.564145,83.0642855 6.564145,50.4792465 L6.564145,50.0103205 C6.564145,20.2396512 30.476097,0.5480315 63.999803,0.5480315 Z M775.414004,2.7401574 L775.414004,110.202446 C775.414004,150.090494 751.977504,169.330314 717.291674,169.330314 C691.746234,169.330314 674.872244,158.067941 663.622914,144.694178 L686.356434,119.35343 C695.730874,129.677136 704.870444,135.778064 716.354634,135.778064 C729.947774,135.778064 738.384364,127.565748 738.384364,108.559982 L738.384364,39.4550055 L684.446484,39.4558215 L684.446484,2.7401574 L775.414004,2.7401574 Z M283.313526,2.7401574 L283.313526,36.0893415 L233.40433,36.0893415 L233.40433,167.139004 L197.319882,167.139004 L197.319882,36.0893415 L147.410686,36.0893415 L147.410686,2.7401574 L283.313526,2.7401574 Z M578.678852,2.7401574 C617.387654,2.7401574 640.612119,23.1722721 640.612119,56.9911975 L640.612119,57.4609395 C640.612119,83.9996905 626.302136,100.67469 605.423115,108.424606 L645.538694,167.139004 L603.311726,167.139004 L568.121906,114.531242 L539.735995,114.531242 L539.735995,167.139004 L503.608323,167.139004 L503.608323,2.7401574 L578.678852,2.7401574 Z M385.280005,33.4274746 C356.134842,33.4274746 335.921287,56.3738465 335.921287,84.4710625 L335.921287,84.9391735 C335.921287,113.036389 356.604583,136.450872 385.749746,136.450872 C414.894909,136.450872 435.108464,113.504499 435.108464,85.4072835 L435.108464,84.9391735 C435.108464,56.8419575 414.425168,33.4274746 385.280005,33.4274746 Z M575.577417,35.6196005 L539.775955,35.6196005 L539.775955,82.7470475 L576.279583,82.7470475 C593.829639,82.7470475 603.891562,73.3685315 603.891562,59.5356295 L603.891562,59.0667045 C603.891562,43.5913385 593.127474,35.6196005 575.577417,35.6196005 Z" id="path-3"></path>
    </defs>
    <g id="Page-1" stroke="none" stroke-width="1" fill="none" fill-rule="evenodd">
        <g id="storj-logo-type-mark-osp-color" transform="translate(-0.000000, -1.000000)">
            <g id="Group-112-Copy">
                <g id="Group-75-Copy">
                    <g id="Group-74-Copy-2">
                        <g id="Group-73" transform="translate(132.528392, 149.969579) rotate(-180.000000) translate(-132.528392, -149.969579) translate(0.028392, 0.969579)">
                            <g id="Combined-Shape-2" transform="translate(0.584047, 0.585338)">
                                <mask id="mask-2" fill="white">
                                    <use xlink:href="#path-1"></use>
                                </mask>
                                <use id="Combined-Shape" fill="#FFBE00" fill-rule="nonzero" xlink:href="#path-1"></use>
                                <rect id="Rectangle" fill="#0149FF" mask="url(#mask-2)" x="-1" y="148" width="265" height="149"></rect>
                            </g>
                        </g>
                    </g>
                    <g id="Clip-45-2" transform="translate(344.026716, 64.979816)">
                        <mask id="mask-4" fill="white">
                            <use xlink:href="#path-3"></use>
                        </mask>
                        <use id="Clip-45" fill="#001C4A" fill-rule="nonzero" xlink:href="#path-3"></use>
                    </g>
                </g>
            </g>
        </g>
    </g>
</svg>